PathFileType	4	(X/Y/Z)	Patient4_TMGait_0pt2_01_right_05.trc.trc
DataRate	CameraRate	NumFrames	NumMarkers	Units	OrigDataRate	OrigDataStartFrame	OrigNumFrames
45.901639344262	45.901639344262	4	33	mm	45.901639344262	1	       141
Frame#	Time	Sacral			L.Shoulder			Chest			R.Shoulder			Neck			R.ASIS			L.ASIS			R.Thigh.Superior			R.Thigh.Lateral			R.Thigh.Inferior			R.Patella			L.Thigh.Superior			L.Thigh.Lateral			L.Thigh.Inferior			L.Patella			L.Shank.Superior			L.Shank.Lateral			L.Shank.Inferior			R.Shank.Superior			R.Shank.Lateral			R.Shank.Inferior			R.Heel			R.Midfoot.Superior			R.Midfoot.Lateral			R.Toe			L.Heel			L.Midfoot.Lateral			L.Midfoot.Superior			L.Toe			L.Elbow			L.Wrist			R.Elbow			R.Wrist			
		X1	Y1	Z1	X2	Y2	Z2	X3	Y3	Z3	X4	Y4	Z4	X5	Y5	Z5	X6	Y6	Z6	X7	Y7	Z7	X8	Y8	Z8	X9	Y9	Z9	X10	Y10	Z10	X11	Y11	Z11	X12	Y12	Z12	X13	Y13	Z13	X14	Y14	Z14	X15	Y15	Z15	X16	Y16	Z16	X17	Y17	Z17	X18	Y18	Z18	X19	Y19	Z19	X20	Y20	Z20	X21	Y21	Z21	X22	Y22	Z22	X23	Y23	Z23	X24	Y24	Z24	X25	Y25	Z25	X26	Y26	Z26	X27	Y27	Z27	X28	Y28	Z28	X29	Y29	Z29	X30	Y30	Z30	X31	Y31	Z31	X32	Y32	Z32	X33	Y33	Z33	

1	9.330000000000	793.098751118391	988.689913683083	414.840381938803	918.436713438064	1442.657801290020	258.920787200744	1023.013882004310	1382.143633898560	422.828305344105	921.854508798837	1432.114895443618	595.702499067931	885.691714805056	1492.186144713858	418.723304337452	1024.791917036460	944.882722164352	537.152501376387	1014.664820869269	975.224655607318	263.535065950547	1075.527957478159	739.881294617360	520.034738494756	999.395465062171	629.924808648126	588.835302551376	1083.599583616045	571.457513865694	519.631448403295	1079.475453733777	465.492397640375	543.276513583997	1071.761129474888	754.893280422815	302.504036263754	991.959321845420	628.763660905570	241.969529342792	1071.623564877596	557.558173313529	314.056001510469	1072.205232135253	486.804067092852	326.071994171766	1042.109360620506	412.158345922816	319.410416965718	951.058248669067	299.994547486950	266.437341350510	990.050955749923	190.222526179832	345.385390466177	1005.216378588415	394.101598362022	556.423252650392	888.056984941640	351.643999334585	622.060880926066	878.131375764889	239.561421581590	579.304172243344	677.206353013464	167.750698761764	561.905875441204	847.629894018421	116.634004926075	603.249811839629	739.881728285329	115.216071017668	637.108921458742	914.396648884656	34.058984800716	632.315118175733	853.349168423412	38.221655542380	383.435896538615	928.494968472829	35.309142175273	303.773797860902	1010.906626924873	96.991368265899	332.135478660777	1139.412815502861	48.055141817386	305.324285403757	1027.931487701268	1128.842887828734	98.041899226243	1204.013387389753	932.337101293848	95.251261397188	977.322443770442	1085.649599923284	717.061860318870	1204.597253691884	955.650926619033	725.234633660311	
2	9.351785714286	792.288031826605	987.587306869810	410.712860872624	921.079776518822	1443.033479949414	258.463122006612	1022.601801994466	1380.977360400181	423.548703834840	918.471224033813	1429.492089406164	594.971733813862	885.589641837017	1491.180282890137	418.243380340343	1023.058010838545	944.598515473951	535.367809977148	1015.692729853446	974.713155338897	261.963765576086	1078.487496109497	741.699994545439	517.848731159137	1005.547207108248	630.983365708518	587.663361190246	1090.570658870501	573.599642917914	517.998018589221	1087.958682382827	466.768189247671	542.973515010278	1072.402202086130	753.752708362820	301.180940904765	992.919952726097	627.471634209904	240.540247817780	1072.485537252239	556.372098111124	312.984789340892	1073.064931695752	485.363608350316	325.107864526916	1041.959243886989	410.678753525266	318.744127044887	949.851893212094	299.361521965017	265.814888179470	987.134319501183	189.423811101151	345.129022343899	1012.641332351454	395.763288504269	555.707008880453	894.310458179871	355.859964711877	620.736559212649	882.439440627052	243.943387397020	578.199062989153	681.247472876506	179.109007955330	558.623947204888	848.423686910537	120.656269767941	602.045756131273	740.398818669256	123.975136029359	634.453099920121	910.623441859869	32.906338031698	632.050957712357	849.030406207846	38.303361856604	383.366959617391	924.194070944341	35.303007911740	303.724678701474	1006.806752375203	96.827864923574	332.163346547388	1135.278755661847	47.406724142470	305.362633640085	1039.205583802813	1134.020237031186	96.275169902700	1225.366029332111	948.731404395233	97.336014942750	959.190368876396	1079.759529760522	709.748066385831	1167.437294410271	928.902980616074	721.689176672587	
3	9.373571428571	791.432118561622	986.468139283444	406.594393425840	923.951550587390	1443.369910233380	258.071206824649	1022.285733018783	1379.727700060268	424.376523300071	915.090619405690	1426.851768937510	594.252908764275	885.613736457815	1490.175119161602	417.779916863711	1021.179004560357	944.247441478525	533.673251415998	1016.687439518880	974.143351036857	260.457931467838	1081.442125176279	743.689573192001	515.836992928736	1011.741376974107	632.157163847365	586.639583688285	1097.757698715499	575.980048599106	516.659816606463	1096.708327650944	468.244868686224	542.911859947158	1072.954789747116	752.561292571983	299.848535779822	993.751180570912	626.159365774134	239.105229271402	1073.217262844283	555.150372911642	311.890101554843	1073.772965197494	483.896444306804	324.133530229457	1041.657894091594	409.172299105516	318.067989371436	948.488038996398	298.709371996680	265.188447712974	984.063773563182	188.611644319223	344.870733244173	1020.294502501640	397.591287641262	555.097808994417	900.647242241443	360.269114428543	619.277004029332	886.879560409528	248.487922343172	576.938579963368	685.360240499642	190.433617152470	554.930071788410	849.438795293181	124.950757471874	600.555325773371	741.054874037284	132.752438758267	631.402365526715	907.199191512862	31.755539418828	631.498484254879	844.545531634333	38.382327403073	383.295235098288	919.728511258084	35.293943168325	303.672427214800	1002.538640032613	96.664966732995	332.188014596097	1130.974659087066	46.770517355136	305.395001026135	1050.844894663120	1139.388195996369	94.568000223926	1247.127388869361	965.867075634949	99.659931775394	940.496193218159	1074.082885426013	702.310623378896	1128.482478211639	902.551418086685	717.371368042041	
4	9.395357142857	790.550351232330	985.410830447915	402.633031169471	927.049839024447	1443.667164161669	257.800811219532	1022.115030151936	1378.440641471645	425.341471564239	911.834541506590	1424.329428373051	593.585245787592	885.820052177727	1489.234986912519	417.366009082068	1019.158047680336	943.850261447365	532.190476805059	1017.623914211008	973.540277273774	259.131627769733	1084.234543274532	745.844195085407	514.157777360753	1017.693820214885	633.453518099121	585.868331268010	1104.881990961112	578.594612008840	515.775957377364	1105.417882322827	469.965155976546	543.185969427381	1073.344627724707	751.352177520920	298.589351706255	994.335851959676	624.894512528331	237.730579269005	1073.672480292923	553.935542410242	310.828583515158	1074.163455336268	482.464382482431	323.200245670564	1041.092695344233	407.708489150966	317.411866916668	946.909429487898	298.066078362171	264.580865115485	980.861032901439	187.823705198822	344.620129332290	1027.946741744011	399.575632133008	554.679256876182	906.881506910680	364.679558026538	617.746277195958	891.436597005607	252.979871493292	575.575312900389	689.561099776123	200.979631531513	550.935504505278	850.937419746503	129.349080040417	598.816340198278	742.103544763235	140.989675670829	628.040470410146	904.741518651496	30.683594588081	630.641010046414	839.982898340416	38.453535313578	383.221719264455	915.186982974855	35.280851959473	303.616689995657	998.180588956654	96.509512784365	332.205099905910	1126.580893743305	46.178378916873	305.418634403726	1062.549311952229	1144.838376211148	93.030765731881	1268.614535000882	983.423107732608	102.249361802899	921.682154552934	1069.006514835801	694.976982292455	1088.553196116669	877.900462758202	712.114752505875	
